<svg width="56" height="56" viewBox="0 0 56 56" fill="none" xmlns="http://www.w3.org/2000/svg">
<path fill-rule="evenodd" clip-rule="evenodd" d="M47.7665 43.4568C47.5932 43.8707 47.3386 44.2459 47.0177 44.5602L43.6115 47.9558C43.2899 48.2865 42.9034 48.5475 42.4761 48.7226C41.8518 48.9965 41.1574 49.0699 40.4894 48.9325C39.8214 48.7951 39.2129 48.4537 38.7483 47.9558L36.7135 45.972C36.7135 43.4649 36.7135 41.5095 36.7135 41.0713C36.7135 40.6656 36.7135 40.3898 36.7135 40.26C36.7208 40.1739 36.7344 40.0885 36.7542 40.0044L36.7868 39.903C36.9029 39.457 37.0596 39.0224 37.2548 38.6048C37.6077 37.9083 38.026 37.2468 38.5041 36.6291C40.7465 33.6067 41.8412 30.1381 41.5563 26.7952C40.6651 15.8497 27.0116 10.9369 18.8725 18.7788C15.6168 21.9026 13.9523 26.568 15.1691 30.9941C16.1377 34.5276 18.2213 36.268 19.9875 39.1484C20.2533 39.5812 20.4754 40.0392 20.6509 40.5155V40.548C20.6905 40.6585 20.7191 40.7727 20.7363 40.8888C20.777 41.1322 20.8055 41.4121 20.8299 41.7488V41.8746C20.8584 42.2803 20.8828 44.0694 20.9073 46.3737C20.5695 46.2357 20.2317 46.0856 19.8817 45.9315C19.5317 45.7773 19.0678 45.5582 18.7097 45.3594C18.5917 45.3027 18.4736 45.2256 18.3516 45.1647L16.4511 47.0958L16.4063 47.1404C16.0836 47.4451 15.7069 47.6872 15.2953 47.8544C14.8863 48.0166 14.4495 48.0979 14.0093 48.0938C13.5678 48.0976 13.1298 48.0163 12.7193 47.8544C12.308 47.6902 11.9312 47.4508 11.6083 47.1485C11.6083 47.1485 11.5757 47.1485 11.5757 47.112L8.1776 43.684C7.84593 43.371 7.58231 42.9935 7.4031 42.5748C7.22388 42.156 7.1329 41.7051 7.13579 41.2498C7.13478 40.7894 7.22898 40.3336 7.41252 39.9111C7.58807 39.4991 7.84876 39.1286 8.1776 38.8238L10.3752 36.6737C9.8512 35.6393 9.44183 34.551 9.1543 33.4282H6.43989C5.98676 33.4273 5.53793 33.3405 5.11727 33.1726C4.70527 33.0009 4.33379 32.7452 4.02663 32.4221C3.70272 32.1012 3.44186 31.7229 3.25747 31.3064C3.09135 30.8977 3.00435 30.4614 3.00109 30.0204V25.1522C2.98932 24.6986 3.07305 24.2477 3.24689 23.8284C3.42073 23.4092 3.68081 23.0309 4.01035 22.718C4.32742 22.4063 4.70376 22.1608 5.11727 21.9959C5.5377 21.8272 5.98668 21.7404 6.43989 21.7403H9.51242C9.96415 20.5841 10.4037 19.6713 10.9571 18.5679L9.02 16.6692C8.70339 16.3383 8.45579 15.9481 8.29155 15.5211C7.97125 14.6949 7.97125 13.7794 8.29155 12.9531C8.45137 12.5444 8.68596 12.1689 8.98338 11.8456C10.1351 10.6975 11.299 9.56159 12.4588 8.41756C12.7788 8.09473 13.1608 7.83948 13.582 7.66704C14.0008 7.48654 14.4524 7.39401 14.9087 7.39522C15.3637 7.39363 15.814 7.48619 16.2313 7.66704C16.6388 7.84981 17.0066 8.11028 17.3138 8.43378L19.491 10.6042C20.529 10.0825 21.6206 9.67448 22.7467 9.38715V6.68121C22.7476 6.2295 22.8346 5.78207 23.0031 5.36273C23.1732 4.9402 23.4296 4.55752 23.756 4.23898C25.453 2.61623 32.9003 2.21054 34.1863 5.36273C34.3523 5.78267 34.4378 6.22987 34.4386 6.68121V9.76038C35.5985 10.2107 36.5182 10.6488 37.6251 11.2006L39.5297 9.30195C39.8479 8.98031 40.2232 8.72032 40.6366 8.53521C41.0544 8.35594 41.5044 8.26349 41.9592 8.26349C42.414 8.26349 42.8641 8.35594 43.2818 8.53521C43.7019 8.71052 44.0804 8.97173 44.3928 9.30195L47.7991 12.6976C48.1311 13.0173 48.3966 13.3992 48.5804 13.8213C48.7603 14.2378 48.853 14.6864 48.853 15.1398C48.853 15.5932 48.7603 16.0418 48.5804 16.4583C48.3988 16.8655 48.1373 17.2324 47.8113 17.5374L45.6341 19.7484C46.041 20.718 46.6677 21.9391 46.8549 22.9736H49.5612C50.0143 22.9745 50.4632 23.0613 50.8838 23.2292C51.2964 23.3999 51.6681 23.6557 51.9745 23.9797L52.0111 24.0122C52.3176 24.3303 52.5656 24.6997 52.7436 25.1035C52.9101 25.5107 52.9971 25.9458 53 26.3854V31.2537C52.9983 31.7053 52.9113 32.1526 52.7436 32.5722C52.5653 32.9894 52.3115 33.3703 51.9948 33.6959C51.6776 34.0155 51.3 34.2693 50.8838 34.4424C50.4634 34.6111 50.0144 34.6979 49.5612 34.698H46.4724C46.0166 35.8623 45.5852 36.7629 45.0277 37.8705L46.9526 39.7528C47.2752 40.0716 47.536 40.4471 47.7217 40.8604C47.9016 41.2768 47.9943 41.7255 47.9943 42.1789C47.9943 42.6323 47.9016 43.0809 47.7217 43.4973L47.7787 43.4568H47.7665ZM20.9317 31.9393C19.7556 30.0894 19.0759 27.9595 20.1788 25.0751C21.0456 22.7992 23.0275 20.933 25.571 19.8904C21.4526 28.9656 33.2829 32.2111 33.6369 21.4645C37.5966 24.7424 37.5641 29.5782 34.6584 33.4809C33.291 35.3309 32.9207 36.3694 32.6236 37.4283C32.4632 38.0492 32.3946 38.6902 32.4201 39.3309C32.4201 39.9435 32.4201 43.3878 32.4567 46.041H25.0867C25.0501 43.6069 25.0135 40.3614 24.9768 39.8259C24.9658 39.0973 24.8366 38.3753 24.5943 37.6879C24.2606 36.8116 23.8577 36.0084 22.6613 34.3572C22.1159 33.6026 21.4404 32.7345 20.9317 31.9231V31.9393Z" fill="#2CE15F"/>
</svg>
