<svg width="56" height="56" viewBox="0 0 56 56" fill="none" xmlns="http://www.w3.org/2000/svg">
<g clip-path="url(#clip0_112_101)">
<path fill-rule="evenodd" clip-rule="evenodd" d="M39.4722 6.51163C48.5064 6.51163 55.8281 13.8346 55.8281 22.8675C55.8281 31.1829 49.6238 38.0474 41.5924 39.0867C41.7434 37.5955 41.4035 35.9325 41.0141 34.5572C41.6067 33.2874 41.7343 31.6465 41.4309 30.4015C41.1509 29.2528 40.5753 28.392 39.8095 27.7877C40.8527 27.5859 41.7434 26.9568 42.2904 26.0895H48.7734C49.8856 26.0895 50.7868 25.187 50.7868 24.0761C50.7868 22.9639 49.8856 22.0627 48.7734 22.0627H42.2904C41.9896 21.5847 41.5833 21.1784 41.1053 20.8776V14.0586C41.1053 12.9464 40.2041 12.0452 39.0919 12.0452C37.9797 12.0452 37.0785 12.9464 37.0785 14.0586V20.8776C36.0171 21.5457 35.3126 22.7282 35.3126 24.0761C35.3126 25.0698 35.6967 25.9749 36.3245 26.6495C36.0288 26.6404 35.728 26.6482 35.4259 26.6716L27.858 27.2551C29.1487 24.9994 30.1007 21.81 30.2218 19.7641C30.3833 17.0461 29.6045 13.6692 26.9373 12.363C29.9366 8.78679 34.4387 6.51163 39.4722 6.51163ZM1.94437 30.4575H7.672C8.74121 30.4575 9.61507 31.3326 9.61507 32.4019V48.3007C9.61507 49.3699 8.73991 50.2437 7.672 50.2437H1.94437C0.875163 50.2437 0 49.3699 0 48.3007V32.4019C0 31.3313 0.875163 30.4575 1.94437 30.4575ZM38.9343 34.2915C39.9553 37.5031 40.0687 39.8824 38.7351 40.682C39.4878 43.611 38.1295 44.7844 37.4848 45.3808C37.4067 45.498 36.9847 45.8054 37.0902 46.4305C37.477 48.7343 35.922 50.2737 34.4283 50.314L19.725 50.7178C18.7379 50.7451 17.8887 50.6006 16.955 50.2815L13.4166 49.0677C12.2835 48.6796 11.5568 47.6612 11.5568 46.4644V31.6074C11.5568 30.6099 12.2796 30.0251 12.8982 29.2437L15.9926 25.3289C16.8508 24.2454 17.7312 23.4367 18.885 22.6761L22.3635 20.3788L23.6828 16.0069C23.507 12.2913 28.6837 13.3449 28.31 19.6508C28.1485 22.3805 26.4802 26.4177 25.1844 27.7057C24.5111 28.3738 24.7872 29.5198 26.6521 29.3127L28.013 29.1643L35.573 28.5821C40.725 28.1849 39.958 33.1351 38.9343 34.2915ZM4.80819 42.4923C6.1053 42.4923 7.15758 43.5446 7.15758 44.843C7.15758 46.1401 6.1053 47.1924 4.80819 47.1924C3.50977 47.1924 2.45749 46.1401 2.45749 44.843C2.45749 43.5446 3.50977 42.4923 4.80819 42.4923ZM39.0919 22.6787C39.8629 22.6787 40.4893 23.3038 40.4893 24.0761C40.4893 24.8471 39.8629 25.4722 39.0919 25.4722C38.3209 25.4722 37.6945 24.8471 37.6945 24.0761C37.6945 23.3038 38.3209 22.6787 39.0919 22.6787Z" fill="#2CE15F"/>
</g>
<defs>
<clipPath id="clip0_112_101">
<rect width="56" height="56" fill="white"/>
</clipPath>
</defs>
</svg>
