<svg width="32" height="32" viewBox="0 0 32 32" fill="none" xmlns="http://www.w3.org/2000/svg">
<path d="M24.5021 6.3999H7.58167C5.32259 6.40218 3.49178 8.23286 3.49091 10.4907V21.261C3.49204 23.5189 5.32273 25.3497 7.58167 25.3518H24.5021C26.7612 25.3495 28.592 23.5188 28.5929 21.261V10.4907C28.5917 8.23272 26.761 6.40194 24.5021 6.3999ZM24.4203 19.8693V19.8704C24.6794 20.067 24.7828 20.4068 24.6771 20.7147C24.5714 21.0215 24.2816 21.2272 23.9566 21.225C23.7896 21.225 23.626 21.1693 23.493 21.067L18.0384 16.825L17.8021 17.0068C16.7657 17.8147 15.3123 17.8147 14.2748 17.0068L14.0384 16.825L8.5839 21.067C8.45208 21.1693 8.28845 21.225 8.12025 21.225C7.79638 21.2272 7.50547 21.0215 7.40092 20.7147C7.29523 20.4068 7.39864 20.067 7.6566 19.8704L12.8089 15.8762L7.65776 11.8821H7.65663C7.48958 11.7627 7.37822 11.5798 7.34867 11.3764C7.31912 11.173 7.37367 10.965 7.49981 10.8025C7.62594 10.64 7.8123 10.5354 8.01684 10.5139C8.22139 10.4911 8.42591 10.5536 8.58388 10.6854L15.2056 15.8185C15.6976 16.2015 16.3862 16.2015 16.8783 15.8185L23.493 10.6854C23.6509 10.5536 23.8555 10.4911 24.0611 10.5139C24.2657 10.5354 24.4521 10.64 24.5782 10.8025C24.7043 10.965 24.7589 11.1729 24.7282 11.3764C24.6986 11.5798 24.5873 11.7627 24.4202 11.8821L19.2746 15.8762L24.4203 19.8693Z" fill="#FCFDFD"/>
</svg>
