<svg width="56" height="56" viewBox="0 0 56 56" fill="none" xmlns="http://www.w3.org/2000/svg">
<path d="M27.5625 7.34605C27.7656 7.34605 27.9603 7.26539 28.1039 7.12181C28.2475 6.97823 28.3281 6.78349 28.3281 6.58043V2.18979C28.3281 1.98673 28.2475 1.79199 28.1039 1.64841C27.9603 1.50483 27.7656 1.42416 27.5625 1.42416C27.3594 1.42416 27.1647 1.50483 27.0211 1.64841C26.8775 1.79199 26.7969 1.98673 26.7969 2.18979V6.58043C26.7969 6.78349 26.8775 6.97823 27.0211 7.12181C27.1647 7.26539 27.3594 7.34605 27.5625 7.34605Z" fill="#2CE15F"/>
<path d="M48.0954 10.7655L44.1019 14.236C43.9503 14.3697 43.8578 14.5579 43.8444 14.7595C43.8311 14.9611 43.898 15.1598 44.0305 15.3124C44.163 15.4649 44.3505 15.5588 44.552 15.5737C44.7535 15.5886 44.9527 15.5232 45.1063 15.3918L49.0998 11.9212C49.1765 11.8555 49.2395 11.7753 49.2851 11.6851C49.3307 11.595 49.358 11.4967 49.3654 11.396C49.3729 11.2952 49.3603 11.194 49.3284 11.0981C49.2966 11.0022 49.2461 10.9136 49.1798 10.8374C49.1135 10.7611 49.0328 10.6987 48.9423 10.6538C48.8518 10.6089 48.7534 10.5823 48.6525 10.5756C48.5517 10.5689 48.4506 10.5823 48.355 10.6148C48.2594 10.6474 48.1711 10.6986 48.0954 10.7655Z" fill="#2CE15F"/>
<path d="M7.93078 10.0508C7.7838 9.9107 7.58718 9.83471 7.38417 9.83958C7.18117 9.84444 6.98841 9.92974 6.8483 10.0767C6.70819 10.2237 6.63221 10.4203 6.63707 10.6233C6.64193 10.8263 6.72724 11.0191 6.87422 11.1592L10.6556 14.764C10.8026 14.9041 10.9992 14.9801 11.2023 14.9752C11.4053 14.9704 11.598 14.8851 11.7381 14.7381C11.8782 14.5911 11.9542 14.3945 11.9494 14.1915C11.9445 13.9885 11.8592 13.7957 11.7122 13.6556L7.93078 10.0508Z" fill="#2CE15F"/>
<path d="M24.7708 20.3322C24.7443 20.3868 24.7188 20.4436 24.6929 20.4997C25.7997 20.8341 26.8778 21.2566 27.9171 21.7632C28.956 21.2568 30.0339 20.8344 31.1403 20.5C30.346 18.761 29.3502 17.6725 28.3483 17.4266C28.4184 17.887 28.3669 18.3578 28.199 18.7922C28.0312 19.2266 27.7526 19.6096 27.3911 19.9033C27.0296 20.1969 26.5976 20.3909 26.138 20.4662C25.6784 20.5414 25.2071 20.4952 24.7708 20.3322Z" fill="#2CE15F"/>
<path d="M25.7056 18.9701C26.3362 18.9701 26.8473 18.459 26.8473 17.8285C26.8473 17.1979 26.3362 16.6868 25.7056 16.6868C25.0751 16.6868 24.564 17.1979 24.564 17.8285C24.564 18.459 25.0751 18.9701 25.7056 18.9701Z" fill="#2CE15F"/>
<path d="M31.5159 23.8566C31.7945 24.0476 32.0682 24.2429 32.3371 24.4426C32.1814 23.5914 31.9681 22.7518 31.6986 21.9296C30.9941 22.135 30.3023 22.3817 29.6268 22.6684C30.2613 23.0344 30.8931 23.4298 31.5159 23.8566Z" fill="#2CE15F"/>
<path d="M24.3183 34.3564C24.0391 34.165 23.7662 33.9688 23.497 33.7702C23.6527 34.6214 23.866 35.4611 24.1355 36.2835C24.84 36.078 25.5318 35.8313 26.2073 35.5447C25.5729 35.179 24.9411 34.7833 24.3183 34.3564Z" fill="#2CE15F"/>
<path d="M26.2073 22.6684C25.5313 22.3815 24.8389 22.1346 24.1338 21.9291C23.8642 22.7519 23.6509 23.592 23.4955 24.4437C23.7653 24.2442 24.0396 24.0486 24.3183 23.8567C24.9411 23.4298 25.5729 23.0344 26.2073 22.6684Z" fill="#2CE15F"/>
<path d="M24.6938 37.713C25.6022 39.7011 26.774 40.8398 27.9171 40.8398C29.0602 40.8398 30.2319 39.7011 31.1403 37.713C30.0339 37.3787 28.956 36.9563 27.9171 36.4499C26.8781 36.9563 25.8002 37.3787 24.6938 37.713Z" fill="#2CE15F"/>
<path d="M19.6587 27.8949C20.3104 27.1739 21.0048 26.4928 21.7382 25.8552C21.8993 24.4051 22.2008 22.9741 22.6385 21.5823C20.4867 21.2082 18.8853 21.5301 18.2393 22.4726C17.5841 23.4283 17.8767 25.0697 19.042 26.9759C19.2288 27.2815 19.4359 27.5882 19.6587 27.8949Z" fill="#2CE15F"/>
<path d="M17.8552 33.0678C18.4858 33.0678 18.9969 32.5566 18.9969 31.9261C18.9969 31.2956 18.4858 30.7845 17.8552 30.7845C17.2247 30.7845 16.7136 31.2956 16.7136 31.9261C16.7136 32.5566 17.2247 33.0678 17.8552 33.0678Z" fill="#2CE15F"/>
<path d="M34.5625 50.5312H21.4375V54.5781H34.5625V50.5312Z" fill="#2CE15F"/>
<path d="M20.6294 29.1083C20.925 29.4466 21.239 29.7823 21.5714 30.1154C21.5598 29.7812 21.5521 29.4452 21.5521 29.1065C21.5521 28.7701 21.5581 28.4358 21.57 28.1037C21.2383 28.4356 20.9247 28.7705 20.6294 29.1083Z" fill="#2CE15F"/>
<path d="M20.3984 31.1045C20.527 31.502 20.5606 31.924 20.4965 32.3368C20.4324 32.7496 20.2723 33.1416 20.0292 33.4813C19.7861 33.8211 19.4667 34.099 19.0967 34.2929C18.7267 34.4868 18.3164 34.5913 17.8987 34.5978C17.8992 35.0036 18.0175 35.4006 18.2393 35.7405C18.8856 36.6832 20.4876 37.0051 22.6405 36.6304C22.2021 35.2402 21.9002 33.8105 21.739 32.3618C21.2676 31.9509 20.8208 31.5318 20.3984 31.1045Z" fill="#2CE15F"/>
<path d="M35.4718 31.9266C35.4717 31.5454 35.5535 31.1686 35.7118 30.8219C35.2114 31.3454 34.6706 31.8609 34.0951 32.3622C33.9339 33.811 33.632 35.2406 33.1937 36.6309C35.3465 37.0054 36.9486 36.6837 37.5949 35.7409C37.8178 35.3986 37.9361 34.9988 37.9353 34.5904C37.2651 34.537 36.6396 34.2333 36.1831 33.7398C35.7267 33.2462 35.4727 32.5989 35.4718 31.9266Z" fill="#2CE15F"/>
<path d="M35.2048 29.1083C34.9092 28.7706 34.5953 28.4353 34.2629 28.1026C34.2739 28.4352 34.282 28.7698 34.282 29.1066C34.282 29.4433 34.2744 29.7812 34.2628 30.1154C34.5955 29.7829 34.9095 29.4472 35.2048 29.1083Z" fill="#2CE15F"/>
<path d="M33.1937 21.5826C33.6323 22.974 33.9344 24.4048 34.0955 25.8547C34.8292 26.4923 35.5238 27.1735 36.1756 27.8947C36.3981 27.5884 36.6054 27.2814 36.7922 26.9759C37.9575 25.0697 38.2501 23.4283 37.5949 22.4725C36.9486 21.5299 35.3465 21.2078 33.1937 21.5826Z" fill="#2CE15F"/>
<path d="M29.6268 35.5447C30.3024 35.8313 30.9942 36.078 31.6986 36.2835C31.9681 35.4611 32.1814 34.6214 32.3371 33.7702C32.0679 33.9688 31.7951 34.165 31.5159 34.3564C30.893 34.7833 30.2613 35.179 29.6268 35.5447Z" fill="#2CE15F"/>
<path d="M38.1447 33.0678C38.7753 33.0678 39.2864 32.5566 39.2864 31.9261C39.2864 31.2956 38.7753 30.7845 38.1447 30.7845C37.5142 30.7845 37.0031 31.2956 37.0031 31.9261C37.0031 32.5566 37.5142 33.0678 38.1447 33.0678Z" fill="#2CE15F"/>
<path d="M27.9171 30.2482C28.5476 30.2482 29.0587 29.7371 29.0587 29.1065C29.0587 28.476 28.5476 27.9649 27.9171 27.9649C27.2866 27.9649 26.7754 28.476 26.7754 29.1065C26.7754 29.7371 27.2866 30.2482 27.9171 30.2482Z" fill="#2CE15F"/>
<path d="M30.65 25.1197C29.7727 24.5175 28.8601 23.9683 27.9171 23.4753C26.9741 23.9683 26.0615 24.5175 25.1841 25.1197C24.4885 25.5965 23.8237 26.101 23.1964 26.6233C23.1221 27.4296 23.0834 28.2606 23.0834 29.1061C23.0834 29.9516 23.1226 30.7845 23.1975 31.5928C23.822 32.1116 24.4859 32.6143 25.1841 33.0929C26.0615 33.6952 26.9741 34.2444 27.9171 34.7375C28.8601 34.2444 29.7727 33.6953 30.65 33.093C31.3483 32.6144 32.0122 32.1117 32.6367 31.593C32.7114 30.7846 32.7507 29.9523 32.7507 29.1062C32.7507 28.2601 32.7115 27.4297 32.637 26.6222C32.0101 26.1008 31.3458 25.5966 30.65 25.1197ZM27.9171 31.7793C27.3884 31.7793 26.8716 31.6226 26.4321 31.3289C25.9925 31.0352 25.6499 30.6178 25.4476 30.1293C25.2452 29.6409 25.1923 29.1035 25.2954 28.585C25.3986 28.0665 25.6531 27.5902 26.027 27.2164C26.4008 26.8426 26.877 26.588 27.3956 26.4849C27.9141 26.3817 28.4515 26.4347 28.9399 26.637C29.4283 26.8393 29.8458 27.1819 30.1395 27.6215C30.4332 28.0611 30.5899 28.5779 30.5899 29.1065C30.5891 29.8152 30.3072 30.4945 29.8062 30.9956C29.3051 31.4967 28.6257 31.7785 27.9171 31.7793Z" fill="#2CE15F"/>
<path d="M27.729 12.6293C23.6329 12.6995 19.7141 14.3122 16.7552 17.1454C13.7673 19.984 12.0859 23.6738 12.0207 27.5251C11.989 29.4929 12.3528 31.447 13.0908 33.2715C13.8287 35.096 14.9256 36.7537 16.3165 38.1461C17.6369 39.4504 18.6847 41.0045 19.3988 42.7176C20.1129 44.4308 20.4791 46.2689 20.476 48.125H17.8256C17.7251 48.125 17.6255 48.1448 17.5326 48.1833C17.4397 48.2218 17.3553 48.2782 17.2842 48.3493C17.2131 48.4203 17.1567 48.5047 17.1183 48.5976C17.0798 48.6905 17.06 48.7901 17.06 48.8906C17.06 48.9912 17.0798 49.0907 17.1183 49.1836C17.1567 49.2765 17.2131 49.3609 17.2842 49.432C17.3553 49.5031 17.4397 49.5595 17.5326 49.598C17.6255 49.6365 17.7251 49.6563 17.8256 49.6563H38.1744C38.3774 49.6563 38.5722 49.5756 38.7158 49.432C38.8594 49.2884 38.94 49.0937 38.94 48.8906C38.94 48.6876 38.8594 48.4928 38.7158 48.3493C38.5722 48.2057 38.3774 48.125 38.1744 48.125H35.3129C35.2761 44.4063 36.7433 40.9971 39.5431 38.2137C42.3563 35.3403 43.9097 31.6109 43.9097 27.7813C43.9097 23.8454 42.3237 20.1093 39.4437 17.2703C36.3453 14.2166 32.1845 12.5627 27.729 12.6293ZM37.3758 29.3665C38.0051 29.1771 38.682 29.2262 39.2773 29.5045C39.8726 29.7827 40.3445 30.2705 40.6029 30.8747C40.8612 31.4789 40.8878 32.1571 40.6777 32.7797C40.4675 33.4023 40.0354 33.9256 39.4637 34.2497C39.5134 35.155 39.3106 35.9459 38.8583 36.6063C38.0869 37.7316 36.6862 38.3154 34.824 38.3154C34.1555 38.3107 33.4888 38.2462 32.8319 38.1225C32.7714 38.1116 32.7097 38.0978 32.6488 38.0859C32.6242 38.1429 32.6006 38.2015 32.5755 38.2576C31.3872 40.9102 29.7329 42.3711 27.9175 42.3711C26.1021 42.3711 24.4478 40.9102 23.2595 38.2576C23.2343 38.2015 23.2108 38.1429 23.1862 38.0859C23.1254 38.0978 23.0637 38.1115 23.0032 38.1225C22.3462 38.2462 21.6795 38.3107 21.011 38.3154C19.1486 38.3154 17.7482 37.7318 16.9766 36.6063C16.5151 35.9329 16.3128 35.0929 16.3792 34.1527C15.8551 33.8054 15.4702 33.2844 15.2923 32.6814C15.1143 32.0783 15.1548 31.4319 15.4065 30.8557C15.6582 30.2795 16.1051 29.8106 16.6684 29.5314C17.2318 29.2522 17.8755 29.1806 18.4865 29.3292C18.5411 29.2554 18.5958 29.1816 18.6523 29.1078C18.3244 28.6793 18.0185 28.2344 17.7359 27.7748C16.2199 25.2948 15.9503 23.1045 16.9766 21.607C18.003 20.1096 20.1433 19.5709 23.0032 20.0908C23.0629 20.1017 23.1235 20.1153 23.1841 20.127C23.2953 19.8699 23.4116 19.6216 23.5331 19.3821C23.1484 18.8442 22.977 18.1827 23.0519 17.5256C23.1269 16.8685 23.443 16.2626 23.939 15.8252C24.435 15.3878 25.0756 15.1499 25.7369 15.1577C26.3982 15.1654 27.0331 15.4182 27.5188 15.8671C27.6508 15.8508 27.7837 15.8424 27.9168 15.842C29.7324 15.842 31.3864 17.3029 32.5747 19.9555C32.5999 20.0116 32.6234 20.0702 32.648 20.1272C32.7089 20.1153 32.7706 20.1016 32.8311 20.0906C35.6909 19.571 37.8312 20.1095 38.8577 21.6068C39.8841 23.1042 39.6144 25.2946 38.0985 27.7746C37.8161 28.2339 37.5104 28.6785 37.1827 29.1067C37.249 29.1933 37.3119 29.2797 37.3754 29.3665H37.3758Z" fill="#2CE15F"/>
</svg>
