<svg width="32" height="32" viewBox="0 0 32 32" fill="none" xmlns="http://www.w3.org/2000/svg">
<path fill-rule="evenodd" clip-rule="evenodd" d="M22.0601 26.3872C22.0601 27.4923 19.3484 28.3902 16.0001 28.3902C12.6548 28.3902 9.94009 27.4953 9.94009 26.3872C9.94009 25.7896 10.7329 25.2551 11.9881 24.8857C9.29745 25.3662 7.46564 26.3152 7.46564 27.4052C7.46564 28.9818 11.2854 30.2611 16.0001 30.2611C20.7148 30.2611 24.5345 28.9818 24.5345 27.4052C24.5345 26.3122 22.7027 25.3662 20.0121 24.8857C21.2673 25.2551 22.0601 25.7896 22.0601 26.3872Z" fill="#FCFDFD"/>
<path fill-rule="evenodd" clip-rule="evenodd" d="M16.6577 24.3993C19.0991 18.4053 25 17.018 25 10.7358C24.997 5.76283 20.97 1.73584 16.0001 1.73584C11.0302 1.73584 7.00317 5.76283 7.00317 10.7327C7.00317 17.015 12.901 18.4053 15.3454 24.3963C15.3665 24.4503 15.3875 24.5044 15.4115 24.5584C15.6457 25.156 15.8469 25.8017 16.0031 26.5014C16.1592 25.8017 16.3604 25.159 16.5947 24.5584C16.6127 24.5044 16.6337 24.4503 16.6577 24.3993ZM19.5856 10.7327C19.5856 12.7147 17.979 14.3183 16.0001 14.3183C14.0211 14.3183 12.4145 12.7117 12.4145 10.7327C12.4145 8.75079 14.0211 7.1472 16.0001 7.1472C17.979 7.1472 19.5856 8.75379 19.5856 10.7327Z" fill="#FCFDFD"/>
</svg>
