<svg width="100%" height="40" viewBox="0 0 180 45" fill="none" xmlns="http://www.w3.org/2000/svg">
<path d="M12.8571 29.8607V7.36365H17.7987V14.2597C18.8103 12.5005 21.5931 12.0892 25.3022 12.0892C27.1083 12.0892 28.6469 12.5728 29.9104 13.2849C32.4413 14.6481 33.7978 17.1613 33.7978 20.5656V29.8607H28.6469V22.0469C28.6469 20.8931 28.4648 19.8878 28.1935 19.0272C27.5617 17.2794 26.1432 16.2741 23.6162 16.2741C19.6087 16.2741 17.8026 18.2885 17.8026 22.283V29.8607H12.8571Z" fill="#2CE15F"/>
<path d="M69.0981 23.8099H74.9737C75.5473 25.4321 77.024 26.0947 81.0276 26.0947C84.7949 26.0947 85.8801 25.3712 85.8801 24.2136C85.8801 23.6652 85.6398 23.3454 84.7639 23.1435C83.8918 22.9113 82.1749 22.797 79.2797 22.7094C72.4119 22.5076 69.7298 21.1482 69.7298 17.8468C69.7298 16.7196 70.0593 15.7334 70.7841 14.8956C72.1987 13.1593 75.0009 12.0892 79.3998 12.0892C85.9072 12.0892 89.4303 13.8561 90.6976 17.8772H85.1553C84.6747 16.1713 82.5663 15.6496 79.3417 15.6496C78.0782 15.6496 77.1441 15.7067 76.4504 15.9085C75.1249 16.2551 74.6714 16.8339 74.6714 17.4431C74.6714 17.9343 74.8226 18.2809 75.6636 18.5436C76.5085 18.7759 78.1363 18.9206 81.0276 19.0348C84.9732 19.1795 87.473 19.5832 88.9225 20.3942C90.4302 21.1749 90.9418 22.3629 90.9418 24.0993C90.9418 27.4274 87.5079 29.8607 80.7602 29.8607C73.6482 29.8607 69.974 27.9224 69.102 23.8099H69.0981Z" fill="#2CE15F"/>
<path d="M114.127 33.2992L116.623 33.1164C117.642 33.0402 118.417 32.8955 119.002 32.6176C120.235 32.1416 120.917 31.1706 121.676 29.6017L122.173 28.5584L111.545 12.0892H116.797L124.51 23.9394L129.878 12.0892H135.172L126.459 30.1462C125.021 33.1012 123.944 34.8414 122.603 35.8885C121.231 36.9091 119.475 37.2746 116.712 37.4764L114.46 37.6402L114.134 33.2992H114.127Z" fill="#2CE15F"/>
<path d="M139.354 25.2722L137.125 29.8607H131.672L142.547 7.36365H147.88L158.938 29.8607H153.547L151.256 25.2722H139.358H139.354ZM141.311 21.2472H149.206L145.198 11.8341L141.311 21.2472Z" fill="#2CE15F"/>
<path d="M45.3902 20.9579C45.3902 19.9107 45.9599 19.549 46.9521 19.549C47.9443 19.549 48.514 19.9107 48.514 20.9579C48.514 22.005 48.0024 22.3934 46.9521 22.3934C45.8436 22.3934 45.3902 22.0431 45.3902 20.9579Z" fill="#2CE15F"/>
<path d="M50.2116 20.9579C50.2116 19.9107 50.7813 19.549 51.7735 19.549C52.7657 19.549 53.3354 19.9107 53.3354 20.9579C53.3354 22.005 52.8238 22.3934 51.7735 22.3934C50.6651 22.3934 50.2116 22.0431 50.2116 20.9579Z" fill="#2CE15F"/>
<path d="M55.0291 20.9579C55.0291 19.9107 55.5989 19.549 56.5911 19.549C57.5833 19.549 58.153 19.9107 58.153 20.9579C58.153 22.005 57.6414 22.3934 56.5911 22.3934C55.4826 22.3934 55.0291 22.0431 55.0291 20.9579Z" fill="#2CE15F"/>
<path d="M161.872 9.70169C161.872 7.96529 162.829 7.36365 164.507 7.36365C166.186 7.36365 167.143 7.96529 167.143 9.70169C167.143 11.4381 166.279 12.0854 164.507 12.0854C162.639 12.0854 161.872 11.5066 161.872 9.70169Z" fill="#2CE15F"/>
<path d="M58.87 12.0892H44.6693C42.5841 12.0892 40.6269 12.8851 39.1541 14.3359C37.6077 15.859 36.724 17.9953 36.7279 20.2C36.7279 25.7481 36.6736 31.6351 36.7046 37.0918V37.1337L46.8436 30.7136C47.6923 30.1729 48.4404 29.8607 49.7659 29.8607H58.7809C63.1643 29.8607 66.8114 26.1137 66.8114 21.8108V19.8954C66.8114 15.5887 63.2457 12.0892 58.8661 12.0892H58.87ZM60.7342 24.8C59.6878 25.889 58.2693 26.4907 56.7422 26.4907H48.1729C45.146 26.4907 41.1462 29.933 41.1462 29.933C41.1462 27.6102 41.2276 25.0475 41.2354 22.7247C41.2431 20.5999 41.185 18.654 42.8244 17.0433C43.8631 16.0228 45.2429 15.4592 46.7118 15.4592H56.6259C59.6452 15.4592 62.1411 17.6868 62.3155 20.5275C62.4047 22.0354 61.7884 23.7147 60.7381 24.8038L60.7342 24.8Z" fill="#2CE15F"/>
<path d="M102.057 16.3502V20.6531C102.061 22.8465 102.212 24.0879 102.91 24.7085C103.542 25.3902 104.716 25.5082 106.735 25.5082H109.386V29.8606H105.379C103.24 29.8606 101.612 29.5636 100.437 29.061C98.0538 27.9376 97.2166 25.5996 97.2166 21.4871V16.354H92.3875V12.0816L97.1895 12.0968C97.1895 11.7122 97.1779 8.77252 97.1779 7.37122H102.046L102.057 12.0968H109.379V16.3578H102.057V16.3502Z" fill="#2CE15F"/>
<path d="M167.143 13.9551H161.872V29.8606H167.143V13.9551Z" fill="#2CE15F"/>
</svg>
