<svg width="56" height="56" viewBox="0 0 56 56" fill="none" xmlns="http://www.w3.org/2000/svg">
<path d="M27.216 38.808C29.008 38.36 30.408 36.96 30.856 35.168C31.024 34.496 31.36 33.88 31.808 33.432C30.464 29.792 27.608 26.992 24.08 25.648C22.176 26.88 19.936 27.608 17.472 27.608C15.064 27.608 12.768 26.88 10.864 25.648C7.33601 27.048 4.48001 29.848 3.13601 33.544C2.18401 36.176 1.62401 38.976 1.40001 41.776C1.28801 43.064 2.35201 44.128 3.64001 44.128H24.752C24.472 43.624 24.36 43.064 24.36 42.448C24.36 40.712 25.536 39.2 27.216 38.808Z" fill="#2CE15F"/>
<path d="M17.528 24.752C22.6621 24.752 26.824 20.59 26.824 15.456C26.824 10.322 22.6621 6.16 17.528 6.16C12.394 6.16 8.23203 10.322 8.23203 15.456C8.23203 20.59 12.394 24.752 17.528 24.752Z" fill="#2CE15F"/>
<path d="M46.592 31.528C46.928 31.416 47.208 31.136 47.208 30.744C47.208 30.352 46.928 30.072 46.592 29.96C44.072 29.344 42.112 27.384 41.496 24.864C41.384 24.528 41.104 24.248 40.712 24.248C40.32 24.248 40.04 24.528 39.928 24.864C39.312 27.384 37.352 29.344 34.832 29.96C34.496 30.072 34.216 30.352 34.216 30.744C34.216 31.136 34.44 31.416 34.832 31.528C37.352 32.144 39.312 34.104 39.928 36.624C40.04 36.96 40.32 37.24 40.712 37.24C41.104 37.24 41.384 37.016 41.496 36.624C42.112 34.104 44.128 32.088 46.592 31.528Z" fill="#2CE15F"/>
<path d="M41.216 41.608C38.36 40.936 36.12 38.696 35.448 35.84C35.336 35.448 35 35.168 34.552 35.168C34.104 35.168 33.768 35.448 33.656 35.84C32.984 38.696 30.744 40.936 27.888 41.608C27.496 41.72 27.216 42.056 27.216 42.504C27.216 42.952 27.496 43.288 27.888 43.4C30.688 44.072 32.984 46.368 33.656 49.168C33.768 49.56 34.104 49.84 34.552 49.84C35 49.84 35.336 49.56 35.448 49.168C36.12 46.368 38.416 44.072 41.216 43.4C41.608 43.288 41.888 42.952 41.888 42.504C41.888 42.056 41.608 41.72 41.216 41.608Z" fill="#2CE15F"/>
<path d="M54.096 38.472C51.912 37.968 50.232 36.232 49.672 34.048C49.616 33.712 49.336 33.544 49 33.544C48.664 33.544 48.384 33.768 48.328 34.048C47.824 36.232 46.088 37.968 43.904 38.472C43.568 38.528 43.4 38.808 43.4 39.144C43.4 39.48 43.624 39.76 43.904 39.816C46.088 40.32 47.768 42.056 48.328 44.24C48.384 44.576 48.664 44.744 49 44.744C49.336 44.744 49.616 44.52 49.672 44.24C50.176 42.056 51.912 40.376 54.096 39.816C54.432 39.76 54.6 39.48 54.6 39.144C54.6 38.864 54.376 38.584 54.096 38.472Z" fill="#2CE15F"/>
</svg>
