<svg width="32" height="32" viewBox="0 0 32 32" fill="none" xmlns="http://www.w3.org/2000/svg">
<path d="M12.8736 9.38665C13.1445 10.773 12.5511 11.191 12.5511 11.191L10.8223 12.2857C10.1332 12.6968 10.5085 13.5574 10.5085 13.5574C13.2099 19.4641 16.1982 21.2415 17.2859 22.0304C18.0731 22.6013 18.5524 22.1946 18.5524 22.1946L20.7792 20.3236C21.5701 19.5431 22.1728 20.08 22.1728 20.08L26.5661 23.3874C27.3135 23.915 26.978 24.9858 26.4393 25.9092C25.9063 26.8221 23.6844 28.9984 20.9235 28.4974C18.1619 27.997 13.2541 26.0191 9.89931 20.9513C6.51133 15.834 5.33174 11.3535 5.33174 11.3535C3.89726 6.69634 7.57933 4.21652 7.57933 4.21652C10.4772 2.37621 11.8333 4.33597 11.8333 4.33597C11.8333 4.33597 12.6038 7.9995 12.8736 9.38665Z" fill="#FCFDFD"/>
</svg>
