<svg width="56" height="56" viewBox="0 0 56 56" fill="none" xmlns="http://www.w3.org/2000/svg">
<path fill-rule="evenodd" clip-rule="evenodd" d="M14.0136 34.2905L9.659 49.4469C9.28719 50.6977 7.96437 51.4325 6.69697 51.0789L4.02391 50.3299L6.25602 42.5762C6.35194 42.222 6.13146 41.8419 5.75965 41.7325C5.40154 41.6236 5.01603 41.8419 4.90517 42.2085L2.67306 49.9493L0 49.2015L5.01541 31.773L14.0136 34.2905ZM33.1379 13.3931C33.0825 13.0124 33.3584 12.6724 33.7445 12.6318C34.1301 12.577 34.4745 12.8495 34.5156 13.2313L35.7014 22.6596C35.7425 22.9031 35.6322 23.1349 35.4529 23.2708L24.8572 32.7267C24.5676 32.9844 24.1273 32.9579 23.8651 32.6714C23.6035 32.3854 23.6309 31.9507 23.9205 31.7059L34.2677 22.4689L33.1379 13.3931ZM35.0119 3C46.0492 3 55.0051 11.8428 55.0051 22.7401C55.0051 27.1892 53.5166 31.2976 50.9955 34.6041C50.9674 34.6177 50.9394 34.6441 50.8983 34.6582L40.7018 39.5015C40.482 39.3102 40.2478 39.1338 39.9999 38.9985C46.862 36.9587 51.9048 30.7952 52.2081 23.4344H48.9564C48.5697 23.4344 48.267 23.1214 48.267 22.7401C48.267 22.3595 48.5697 22.0471 48.9564 22.0471H52.2081C51.8493 13.2166 44.6572 6.11528 35.7145 5.76169V8.97228C35.7145 9.35354 35.3975 9.66593 35.0119 9.66593C34.6264 9.66593 34.3094 9.35354 34.3094 8.97228V5.76169C25.3673 6.11528 18.1745 13.2166 17.8158 22.0465H21.0675C21.4536 22.0465 21.7563 22.3589 21.7563 22.7395C21.7563 23.1208 21.4536 23.4338 21.0675 23.4338H17.8158C17.9672 27.1886 19.3591 30.6169 21.5775 33.365C20.5854 33.4874 19.6213 33.7604 18.7114 34.1681C16.3827 30.9434 15.0182 26.998 15.0182 22.7395C15.0188 11.8428 23.9616 3 35.0119 3ZM34.3094 38.7396V36.5221C34.3094 36.1267 34.6264 35.8291 35.0119 35.8291C35.3981 35.8291 35.7145 36.1267 35.7145 36.5221V38.7125L34.3094 38.7396ZM11.3947 48.4531L14.7846 36.6851L17.2509 36.7386C19.3448 34.9165 22.2246 34.2364 24.9257 34.9165C26.7991 35.3919 28.4252 36.4944 29.5693 37.9777C30.6442 39.4062 32.2012 40.1539 34.0061 40.1269L38.5943 40.0322C39.7926 40.0187 40.5231 41.4336 40.8395 42.1814C41.2119 43.0386 41.0188 44.0324 40.3581 44.7119C39.6823 45.4055 39.0352 45.419 38.1527 45.4467L25.9452 45.6644C25.5591 45.6644 25.2558 45.978 25.2558 46.3574C25.2695 46.7393 25.5865 47.0523 25.9726 47.0382L38.6217 46.8063C38.6771 46.8063 38.7319 46.8063 38.7874 46.8063C39.7926 46.7664 40.7018 46.331 41.3639 45.6644C42.4108 44.5901 42.7141 43.0122 42.1355 41.6513C41.9842 41.283 41.7637 40.9441 41.5015 40.644L51.6008 35.8691C54.1226 34.1681 57.2092 37.1887 55.5139 39.705L39.2003 51.9091C37.837 52.9151 36.2382 53.2423 34.5847 52.8198L16.673 48.3302L11.3947 48.4531Z" fill="#2CE15F"/>
</svg>
