<svg width="56" height="56" viewBox="0 0 56 56" fill="none" xmlns="http://www.w3.org/2000/svg">
<path d="M21.5607 6.5032C23.8279 6.52346 25.9954 7.4383 27.5914 9.04865C29.1875 10.659 30.0829 12.8345 30.083 15.1018C30.083 17.3691 29.1876 19.5447 27.5916 21.155C25.9955 22.7654 23.8281 23.6803 21.5609 23.7006C19.2937 23.6804 17.1263 22.7655 15.5302 21.1552C13.9342 19.5448 13.0387 17.3693 13.0387 15.102C13.0386 12.8347 13.9341 10.6592 15.5301 9.04879C17.1261 7.4384 19.2935 6.52351 21.5607 6.5032ZM21.5609 37.6735C21.5641 35.309 22.1672 32.984 23.314 30.9161C24.4607 28.8483 26.1134 27.1053 28.1174 25.8503H14.037C12.6119 25.8508 11.2452 26.4172 10.2375 27.4249C9.22974 28.4327 8.66336 29.7993 8.66284 31.2245V44.1226C8.66336 45.5477 9.22974 46.9144 10.2375 47.9221C11.2452 48.9299 12.6119 49.4963 14.037 49.4968H28.1174C26.1134 48.2418 24.4607 46.4988 23.314 44.4309C22.1673 42.3631 21.5641 40.0381 21.5609 37.6735ZM35.5341 49.4968C19.9178 48.9761 19.9124 26.374 35.5338 25.8503C51.1541 26.3527 51.1566 48.9924 35.5341 49.4968ZM40.2201 33.6106C39.5496 34.1841 33.9614 38.9875 33.4486 39.4148L30.9765 36.5127C30.789 36.3039 30.5272 36.1766 30.2472 36.1582C29.9671 36.1397 29.6909 36.2315 29.4776 36.4139C29.2643 36.5963 29.1308 36.855 29.1056 37.1345C29.0804 37.414 29.1655 37.6924 29.3427 37.91L32.5243 41.6289C32.6277 41.7432 32.7537 41.8347 32.8943 41.8977C33.035 41.9606 33.1872 41.9936 33.3413 41.9946C33.8248 42.3067 40.9914 35.6147 41.6175 35.2445C42.6783 34.3566 41.2677 32.6763 40.2201 33.6106Z" fill="#2CE15F"/>
</svg>
